<svg xmlns="http://www.w3.org/2000/svg"><symbol id="accordion" viewBox="0 0 27 28"><path fill-rule="evenodd" d="M12.28 1c-.02-.53.36-.99.87-1h.6c.5.01.88.46.87 1l-.52 24.09c-.01.36-.28.64-.62.64-.33 0-.6-.28-.61-.63zm3.86 0c.03-.53.46-.94.96-.89l.29.03.29.03c.5.07.83.56.77 1.08l-2.88 24.12c-.04.37-.38.63-.72.55a.65.65 0 0 1-.49-.68zM9.67.11c.5-.05.92.35.97.88l1.97 24.28c.02.31-.18.6-.47.66-.33.07-.65-.17-.69-.53L8.44 1.24C8.37.71 8.7.22 9.2.16l.23-.03c.09-.01.17-.02.24-.02m1.45 25.53-.37-2.16-2.92.86a.3.3 0 0 1-.36-.21l-.13-.52c-.04-.16.04-.33.2-.37l3.01-.89-.16-.94-3.17.95a.273.273 0 0 1-.35-.2l-.14-.52c-.04-.16.05-.33.2-.37l3.27-.99-.17-.99-3.44 1.06a.3.3 0 0 1-.36-.21l-.12-.45c-.04-.16.05-.33.2-.37l3.54-1.09-.47-2.73-3.51 1.15c-.15.05-.31-.04-.36-.2l-.15-.51c-.05-.16.04-.33.19-.38l3.64-1.19-.15-.89-3.77 1.13c-.15.05-.31-.04-.36-.21l-.13-.51c-.05-.16.04-.33.19-.37l3.88-1.17-.48-2.77-4.13 1.23a.286.286 0 0 1-.35-.21l-.14-.52c-.04-.16.05-.33.2-.38l4.23-1.25-.17-.99-4.33 1.38c-.15.05-.31-.04-.36-.2l-.14-.51c-.05-.16.04-.33.19-.38l4.45-1.42-.15-.87L3.15 6.9c-.15.05-.31-.04-.36-.2l-.14-.51c-.05-.16.04-.33.19-.38L7.4 4.36c.03-.01.05-.01.08-.02l-.45-2.59c-.09-.55-.59-.9-1.09-.73-.54.19-1.32.51-2.3 1.01-.74.37-1.33.7-1.77.96-.71.42-1.02 1.28-.8 2.11 1.77 6.78 4.68 17.72 5.87 22.21.19.71 1.3.9 1.84.43.46-.4 1.06-.82 1.83-1.16.35-.16.57-.54.51-.94m4.76 0 4.09-23.89c.09-.55.59-.9 1.09-.73.54.19 1.32.51 2.3 1.01.74.37 1.33.7 1.77.96.71.42 1.02 1.28.8 2.11-1.77 6.78-4.68 17.72-5.87 22.21-.19.71-1.3.9-1.84.43-.46-.4-1.06-.82-1.83-1.16a.89.89 0 0 1-.51-.94m5.65-11.14c0 .49-.38.89-.85.89-.46 0-.84-.4-.84-.89s.38-.89.84-.89c.47 0 .85.4.85.89m-1.84 5.06c.47 0 .85-.4.85-.89s-.38-.89-.85-.89c-.46 0-.84.4-.84.89s.38.89.84.89m-.18 3.2c0 .49-.37.89-.84.89-.46 0-.84-.4-.84-.89s.38-.89.84-.89c.47 0 .84.4.84.89m2.02-11.53c.46 0 .84-.4.84-.89s-.38-.89-.84-.89c-.47 0-.85.4-.85.89s.38.89.85.89m1.68-5.13c0 .49-.38.89-.84.89-.47 0-.84-.4-.84-.89s.37-.89.84-.89c.46 0 .84.4.84.89" clip-rule="evenodd"/></symbol><symbol id="acoustic-guitar" viewBox="0 0 27 28"><path fill-rule="evenodd" d="M7.84 2.39c0-.53.28-1.02.76-1.25C9.6.69 11.44 0 13.5 0c2.05 0 3.9.69 4.9 1.14.48.23.76.72.76 1.25v13.08c0 .37-.14.73-.39 1.01l-1.05 1.15a.12.12 0 0 1-.05.05v1.48H9.33v-1.48a.12.12 0 0 1-.05-.05l-1.05-1.15a1.52 1.52 0 0 1-.39-1.01zm2.53 1.22c0-.58.47-1.04 1.04-1.04.58 0 1.05.46 1.05 1.04v11.4c0 .58-.47 1.04-1.05 1.04-.57 0-1.04-.46-1.04-1.04zm5.22-1.04c-.58 0-1.05.46-1.05 1.04v11.4c0 .58.47 1.04 1.05 1.04.57 0 1.04-.46 1.04-1.04V3.61c0-.58-.47-1.04-1.04-1.04M20.86 6C21.49 6 22 5.25 22 4.31c0-.93-.51-1.68-1.14-1.68s-1.14.75-1.14 1.68c0 .94.51 1.69 1.14 1.69m-3.19 14.14H9.33V27c0 .55.45 1 1 1h6.34c.56 0 1-.45 1-1zM22 8.69c0 .93-.51 1.69-1.14 1.69s-1.14-.76-1.14-1.69S20.23 7 20.86 7 22 7.76 22 8.69m-1.14 6.06c.63 0 1.14-.75 1.14-1.69 0-.93-.51-1.68-1.14-1.68s-1.14.75-1.14 1.68c0 .94.51 1.69 1.14 1.69M7.28 4.99c0 .94-.51 1.69-1.14 1.69S5 5.93 5 4.99c0-.93.51-1.68 1.14-1.68s1.14.75 1.14 1.68m-1.14 5.97c.63 0 1.14-.76 1.14-1.69 0-.94-.51-1.69-1.14-1.69S5 8.33 5 9.27c0 .93.51 1.69 1.14 1.69m1.14 2.64c0 .94-.51 1.69-1.14 1.69S5 14.54 5 13.6c0-.93.51-1.68 1.14-1.68s1.14.75 1.14 1.68" clip-rule="evenodd"/></symbol><symbol id="agogo" viewBox="0 0 27 28"><path fill-rule="evenodd" d="M16.09 0c-.61 0-1.08.51-1.02 1.1l1.84 18c.05.46.4.82.86.89v4.26c0 .38-.13.97-.47 1.44-.32.43-.86.81-1.83.81-.98 0-1.51-.38-1.83-.81-.35-.47-.47-1.06-.47-1.44v-2.26c.45-.08.81-.44.85-.9l.84-9A1.01 1.01 0 0 0 13.84 11h-2.87c-.6 0-1.07.5-1.02 1.09l.84 9c.04.46.4.82.85.9v2.26c0 .62.18 1.53.76 2.31.6.82 1.59 1.44 3.07 1.44 1.47 0 2.47-.62 3.07-1.44.57-.78.76-1.69.76-2.31v-4.26c.45-.07.81-.43.86-.89l1.83-18c.07-.59-.41-1.1-1.01-1.1zm-7 5.97c0 .84-.53 1.56-1.28 1.85v19.43c0 .41-.34.75-.77.75-.42 0-.76-.34-.76-.75V7.82A1.99 1.99 0 0 1 5 5.97c0-1.11.91-2 2.04-2s2.05.89 2.05 2" clip-rule="evenodd"/></symbol><symbol id="cello" viewBox="0 0 27 28"><path fill-rule="evenodd" d="M9.4 8.8a1 1 0 0 1-.59-1.2l.48-1.75h-.55c-.66 0-1.14-.61-.98-1.25l.5-2.01c.11-.45.52-.76.98-.76h1.18l.3-1.09c.14-.52.67-.83 1.19-.72l1.15.26c.29.07.59.07.88 0l1.15-.26c.52-.11 1.05.2 1.19.72l.3 1.09h1.18c.46 0 .87.31.98.76l.5 2.01c.16.64-.32 1.25-.98 1.25h-.55l.48 1.75a1 1 0 0 1-.59 1.2l.95 14.17h-2.69l-.95-12.22-1.41 1.65-1.41-1.65-.95 12.22H8.45zm-.95 3.25c0 1.59-.96 2.87-2.16 2.87-1.19 0-2.16-1.28-2.16-2.87s.97-2.87 2.16-2.87c1.2 0 2.16 1.28 2.16 2.87m14.42 0c0 1.59-.97 2.87-2.16 2.87-1.2 0-2.16-1.28-2.16-2.87s.96-2.87 2.16-2.87c1.19 0 2.16 1.28 2.16 2.87M5.66 22.66c1.19 0 2.16-1.28 2.16-2.87s-.97-2.87-2.16-2.87S3.5 18.2 3.5 19.79s.97 2.87 2.16 2.87m17.84-3.18c0 1.58-.97 2.87-2.16 2.87s-2.16-1.29-2.16-2.87c0-1.59.97-2.88 2.16-2.88s2.16 1.29 2.16 2.88M8.45 26.99v-3.02h10.1v3.02c0 .56-.45 1.01-1.01 1.01H9.46c-.56 0-1.01-.45-1.01-1.01" clip-rule="evenodd"/></symbol><symbol id="choir-aahs-synth-strings" viewBox="0 0 27 28"><path fill-rule="evenodd" d="M20.3 2.9c0 1.59-1.3 2.89-2.91 2.89a2.9 2.9 0 0 1-2.9-2.89c0-1.6 1.3-2.9 2.9-2.9C19 0 20.3 1.3 20.3 2.9m-1.84 1.37c0 .6-.41 1.07-.91 1.07s-.91-.47-.91-1.07c0-.59.41-1.06.91-1.06s.91.47.91 1.06M4.12 28h18.84l.44-11.55h.14v6.68c0 .53.54 1.44 1.26 1.44.93 0 1.2-1.02 1.2-1.44v-6.95c0-1.88-.83-2.93-2.1-2.93h-5.52c-.42 0-1.04.18-1.57.59-.3-.35-.66-.59-1.06-.59H11.2c-.28-.01-.75.14-1.23.65-.36-.42-.85-.65-1.44-.65H3.61C2.73 13.25 1 14.07 1 16v7.13c.01.48.27 1.44 1.15 1.44.89 0 1.28-.75 1.28-1.44v-6.68h.18zm6.29-6.89c-.16 1-.37 2.13-.59 3.24v-4.19l.57-2.38.01-.01v-.01s0-.01.01-.02zm6.84-1.69v3.06l-.69-3.25v-2.46c.15.57.41 1.56.69 2.65M9.84 5.79c1.6 0 2.91-1.3 2.91-2.89a2.91 2.91 0 0 0-5.82 0c0 1.59 1.3 2.89 2.91 2.89m0-.45c.5 0 .91-.47.91-1.07 0-.59-.41-1.06-.91-1.06s-.91.47-.91 1.06c0 .6.41 1.07.91 1.07m6.77 4.21c0 1.6-1.3 2.9-2.91 2.9-1.6 0-2.9-1.3-2.9-2.9s1.3-2.89 2.9-2.89c1.61 0 2.91 1.29 2.91 2.89m-2.01.98c0 .62-.4 1.13-.9 1.13-.49 0-.89-.51-.89-1.13 0-.63.4-1.13.89-1.13.5 0 .9.5.9 1.13m-7.67 1.92c1.61 0 2.91-1.3 2.91-2.9s-1.3-2.89-2.91-2.89c-1.6 0-2.9 1.29-2.9 2.89s1.3 2.9 2.9 2.9m-.5-.79c.5 0 .9-.51.9-1.13 0-.63-.4-1.13-.9-1.13s-.9.5-.9 1.13c0 .62.4 1.13.9 1.13m16.93-2.11c0 1.6-1.3 2.9-2.9 2.9-1.61 0-2.91-1.3-2.91-2.9s1.3-2.89 2.91-2.89c1.6 0 2.9 1.29 2.9 2.89m-1.48.98c0 .62-.4 1.13-.9 1.13s-.9-.51-.9-1.13c0-.63.4-1.13.9-1.13s.9.5.9 1.13" clip-rule="evenodd"/></symbol><symbol id="clarinet-oboe" viewBox="0 0 27 28"><path fill-rule="evenodd" d="M10.32 10c0-2.12-.68-5.35-1.94-6.72l-.06-.06c-.02-.03-.05-.05-.07-.08-.39-.44-.87-.98-2.36-.98C4.65 2.16 4.65 0 6.2 0h14.6c1.55 0 1.55 2.16.31 2.16-1.49 0-1.97.54-2.36.98-.04.05-.08.1-.13.14-1.26 1.37-1.94 4.6-1.94 6.72zm7.11 14.08c0 .78-.66 1.42-1.46 1.42-.81 0-1.46-.64-1.46-1.42s.65-1.41 1.46-1.41c.8 0 1.46.63 1.46 1.41m-.75-12.53h-6.35L10.78 28h5.46l.05-1.9c-.21.07-.44.1-.68.1-1.21 0-2.19-.95-2.19-2.12s.98-2.12 2.19-2.12c.27 0 .54.05.79.14l.06-2.21c-.27.11-.55.17-.85.17-1.21 0-2.19-.95-2.19-2.12s.98-2.12 2.19-2.12c.34 0 .66.07.95.21zm.75 6.39c0 .78-.66 1.41-1.46 1.41-.81 0-1.46-.63-1.46-1.41s.65-1.42 1.46-1.42c.8 0 1.46.64 1.46 1.42m.78-2.94a.77.77 0 0 0-.78.76V28H19V15.76c0-.42-.36-.76-.79-.76" clip-rule="evenodd"/></symbol><symbol id="double-bass" viewBox="0 0 27 28"><path fill-rule="evenodd" d="M18.74 7c-.23.85-.67 1.62-1.25 2.25l.9 13.75h-2.63l-.91-11.08a.99.99 0 0 0-.98-.92h-.82c-.51 0-.94.4-.98.92L11.16 23H8.52l.92-13.88A5.3 5.3 0 0 1 8.3 7h-.21c-.54 0-.98-.45-.98-1V4c0-.55.44-1 .98-1h.59c.9-1.78 2.73-3 4.84-3s3.94 1.22 4.84 3h.59a1 1 0 0 1 .99 1v2a1 1 0 0 1-.99 1zm2.43 8.31c1.22-.11 2.08-1.76 1.92-3.68-.17-1.93-1.29-3.4-2.51-3.3-1.23.11-2.09 1.76-1.93 3.68.17 1.93 1.29 3.4 2.52 3.3m.34 7.65c1.25-.11 2.13-1.76 1.97-3.68-.16-1.93-1.31-3.4-2.56-3.29s-2.13 1.75-1.96 3.68c.16 1.93 1.3 3.4 2.55 3.29M3.52 19.29c-.16 1.92.69 3.57 1.91 3.68 1.22.1 2.33-1.37 2.5-3.3.16-1.93-.69-3.57-1.91-3.68-1.22-.1-2.34 1.37-2.5 3.3m2.22-3.98c-1.22-.11-2.07-1.75-1.9-3.68.16-1.92 1.27-3.4 2.49-3.3 1.21.11 2.06 1.76 1.9 3.68-.16 1.93-1.28 3.4-2.49 3.3M18.39 24H8.52v3a1 1 0 0 0 .99 1h7.9c.54 0 .98-.45.98-1z" clip-rule="evenodd"/></symbol><symbol id="drums" viewBox="0 0 27 28"><path fill-rule="evenodd" d="M19.5 6.09v-.17C19.5 2.65 18.31 0 16.85 0s-2.64 2.65-2.64 5.92v.14c0 .7-.01 1.52.5 1.95.25.24.33.48.39.7v.19c0 .69-.14 8.52-.25 14.87-.06 3.09-.11 1.83-.13 3.24-.01.55.44.99 1.01.99h2.26c.57 0 1.02-.44 1.01-.99-.04-1.84-.12-1.98-.2-6.18-.12-5.76-.23-11.65-.23-11.93.01-.06.02-.12.04-.19.05-.22.12-.42.39-.7.51-.47.5-1.23.5-1.92m-12 8.62c0-3.26 1.18-5.91 2.65-5.91 1.46 0 2.64 2.65 2.64 5.91v.18c0 .69.01 1.45-.5 1.91-.27.28-.34.48-.39.71-.02.06-.03.13-.04.19 0 .28.12 2.17.23 7.93l.03 1.35c.01.56-.45 1.02-1.03 1.02h-1.9c-.57 0-1.03-.46-1.03-1.02.11-6 .23-8.65.23-9.28v-.06c0-.04.01-.09 0-.13A1.4 1.4 0 0 0 8 16.8c-.5-.43-.5-1.24-.5-1.95z" clip-rule="evenodd"/></symbol><symbol id="electric-bass" viewBox="0 0 27 28"><path fill-rule="evenodd" d="M8.69 3.51c0-.05.01-.1.03-.14.08-.2.43-.76 1.8-1.13.86-.23 1.74-.24 2.79-.24h.24c1.02 0 1.84 0 2.68.24.93.27 1.51.64 1.83.9.22.18.32.44.35.71l1.4 13.49c.09.85-.61 1.57-1.3 2.08-.41.3-.76.79-.76 1.55v1.04H9.31v-1.26c-.06-.66-.41-1.08-.81-1.36-.72-.49-1.42-1.22-1.32-2.07zm2.37 7.15c.74 0 1.33-.59 1.33-1.31 0-.73-.59-1.32-1.33-1.32s-1.34.59-1.34 1.32c0 .72.6 1.31 1.34 1.31M12.13 15c0 .73-.6 1.32-1.34 1.32-.73 0-1.33-.59-1.33-1.32s.6-1.32 1.33-1.32c.74 0 1.34.59 1.34 1.32m3.84-4.34c.73 0 1.33-.59 1.33-1.31 0-.73-.6-1.32-1.33-1.32-.74 0-1.34.59-1.34 1.32 0 .72.6 1.31 1.34 1.31M17.75 15c0 .73-.6 1.32-1.34 1.32-.73 0-1.33-.59-1.33-1.32s.6-1.32 1.33-1.32c.74 0 1.34.59 1.34 1.32M6.28 11.2c.64 0 1.15-.98 1.15-2.19 0-1.22-.51-2.2-1.15-2.2s-1.15.98-1.15 2.2c0 1.21.51 2.19 1.15 2.19m11.47 11.79H9.31V29c0 .55.45 1 1.01 1h6.42c.56 0 1.01-.45 1.01-1zM6.81 15c0 1.21-.52 2.2-1.16 2.2-.63 0-1.15-.99-1.15-2.2s.52-2.19 1.15-2.19c.64 0 1.16.98 1.16 2.19m13.91-3.8c-.64 0-1.15-.98-1.15-2.19 0-1.22.51-2.2 1.15-2.2s1.15.98 1.15 2.2c0 1.21-.51 2.19-1.15 2.19m-.53 3.8c0 1.21.52 2.2 1.16 2.2.63 0 1.15-.99 1.15-2.2s-.52-2.19-1.15-2.19c-.64 0-1.16.98-1.16 2.19" clip-rule="evenodd"/></symbol><symbol id="electric-guitar-1" viewBox="0 0 27 28"><path fill-rule="evenodd" d="M12.43 2.72C13.02.93 14.92 0 16.68 0c1.75 0 4.08 1.64 4.08 4.27 0 1.75-.8 2.59-1.4 3.2-.29.3-.53.55-.59.83-.03.12-.05.23-.08.35-.25 1.08-.54 2.3.42 4.34.35.73.96 1.44 1.54 2.1.71.81 1.35 1.55 1.35 2.15 0 .67-.75.98-1.52 1.3-.51.21-1.03.42-1.37.75-.85.82-1.49 2.42-1.49 2.42H9.11v-.6c0-.29-.37-.52-.77-.77-.47-.29-.97-.6-.97-1.05 0-.85 4.46-14.79 5.06-16.57M10.3 18.11c.51 0 .92-.4.92-.89s-.41-.89-.92-.89-.92.4-.92.89.41.89.92.89m1.74-3.52c0 .49-.41.89-.92.89-.5 0-.92-.4-.92-.89s.42-.89.92-.89c.51 0 .92.4.92.89M12 12.62c.5 0 .92-.4.92-.89s-.42-.89-.92-.89c-.51 0-.92.4-.92.89s.41.89.92.89m1.84-3.57c0 .5-.41.9-.92.9s-.92-.4-.92-.9c0-.49.41-.89.92-.89s.92.4.92.89m0-1.95c.51 0 .92-.4.92-.89 0-.5-.41-.9-.92-.9s-.92.4-.92.9c0 .49.41.89.92.89m1.73-3.68c0 .5-.41.9-.92.9s-.92-.4-.92-.9c0-.49.41-.89.92-.89s.92.4.92.89m-4.25-.99c-.2.66-.81 1.06-1.34.9-.54-.16-.81-.82-.6-1.48s.81-1.06 1.35-.9c.53.16.8.82.59 1.48M9.1 6.14c.54.16 1.14-.25 1.35-.91s-.06-1.32-.6-1.48c-.53-.16-1.14.25-1.34.9-.21.66.06 1.33.59 1.49m.54 1.76c-.21.66-.81 1.07-1.35.91-.53-.16-.8-.83-.59-1.49.2-.65.81-1.06 1.34-.9.54.16.81.82.6 1.48M7.4 11.52c.53.16 1.14-.24 1.34-.9.21-.66-.06-1.33-.59-1.48-.54-.16-1.14.24-1.35.9s.06 1.32.6 1.48m.47 1.87c-.2.66-.81 1.06-1.34.9-.54-.16-.81-.82-.6-1.48s.81-1.06 1.35-.9c.53.16.8.82.59 1.48m-2.2 3.68c.53.16 1.14-.24 1.35-.9.2-.66-.06-1.32-.6-1.48s-1.14.24-1.35.9.06 1.33.6 1.48m11.98 5.67H9.17V27c0 .55.46 1 1.02 1h6.45c.56 0 1.01-.45 1.01-1z" clip-rule="evenodd"/></symbol><symbol id="electric-guitar-2" viewBox="0 0 27 28"><path fill-rule="evenodd" d="M15.54.49c.52.22 1 .42 1.56.42.6 0 1.19.16 1.69.31.6.18 1.16.88 1.12 1.53l-.83 13.13c-.02.4-.3.76-.56 1.1-.08.1-.16.21-.23.31-.64.94-.79 2.94-.79 2.94H9.54c0-.57-.19-2.23-.84-3.01-.06-.07-.12-.15-.19-.22-.3-.33-.61-.68-.64-1.11C7.71 13.5 7.3 7 7.12 2.68c-.02-.63.51-1.3 1.09-1.46.41-.11.87-.21 1.33-.21.48 0 1.05-.21 1.67-.44C11.94.3 12.74 0 13.54 0c.81 0 1.43.26 2 .49M16.88 6c.53 0 .97-.45.97-1.02 0-.56-.44-1.01-.97-1.01-.54 0-.98.45-.98 1.01 0 .57.44 1.02.98 1.02m.68 3.68c0 .56-.44 1.02-.98 1.02-.53 0-.97-.46-.97-1.02s.44-1.02.97-1.02c.54 0 .98.46.98 1.02m-1.26 5.7c.54 0 .97-.46.97-1.02s-.43-1.02-.97-1.02-.97.46-.97 1.02.43 1.02.97 1.02M9.11 4.98c0 .57.43 1.02.97 1.02s.97-.45.97-1.02c0-.56-.43-1.01-.97-1.01s-.97.45-.97 1.01m1.26 5.72c-.54 0-.97-.46-.97-1.02s.43-1.02.97-1.02.97.46.97 1.02-.43 1.02-.97 1.02m-.69 3.66c0 .56.44 1.02.97 1.02.54 0 .98-.46.98-1.02s-.44-1.02-.98-1.02c-.53 0-.97.46-.97 1.02m7.8 6.89H9.55V27c0 .55.42 1 .95 1h6.03c.53 0 .95-.45.95-1zm5.01-16.19c-.06.93-.59 1.65-1.19 1.61s-1.03-.83-.97-1.76c.06-.94.6-1.65 1.19-1.61.6.04 1.04.83.97 1.76M21 11.36c.6.04 1.13-.68 1.2-1.61.06-.93-.38-1.72-.97-1.76-.6-.05-1.13.67-1.2 1.6-.06.93.38 1.72.97 1.77m.91 3.08c-.06.93-.6 1.65-1.19 1.6-.6-.04-1.03-.83-.97-1.76s.59-1.65 1.19-1.61c.6.05 1.03.84.97 1.77M5.7 6.67c-.6.04-1.13-.68-1.19-1.61-.07-.93.37-1.72.97-1.76.59-.04 1.13.67 1.19 1.61.06.93-.37 1.72-.97 1.76m-.9 3.08c.07.93.6 1.65 1.2 1.61.59-.05 1.03-.84.97-1.77-.07-.93-.6-1.65-1.2-1.6-.59.04-1.03.83-.97 1.76m1.48 6.29c-.59.05-1.13-.67-1.19-1.6s.37-1.72.97-1.77c.6-.04 1.13.68 1.19 1.61s-.37 1.72-.97 1.76" clip-rule="evenodd"/></symbol><symbol id="fx" viewBox="0 0 27 28"><path fill-rule="evenodd" d="M3.53 15.14c0-5.57 4.46-10.08 9.97-10.08s9.97 4.51 9.97 10.08c0 3.29-1.56 6.22-3.99 8.06-.55.42-.67 1.23-.25 1.79s1.21.68 1.77.25c3.03-2.3 5-5.97 5-10.1C26 8.16 20.4 2.5 13.5 2.5S1 8.16 1 15.14c0 4.13 1.97 7.8 5 10.1.56.43 1.35.31 1.77-.25s.3-1.37-.25-1.79a10.08 10.08 0 0 1-3.99-8.06m17.84 0c0 4.39-3.53 7.95-7.87 7.95s-7.87-3.56-7.87-7.95c0-4.4 3.53-7.96 7.87-7.96s7.87 3.56 7.87 7.96m-7.05-2.05c0 1.49-1.2 2.7-2.67 2.7a2.69 2.69 0 0 1-2.68-2.7c0-1.5 1.2-2.71 2.68-2.71 1.47 0 2.67 1.21 2.67 2.71" clip-rule="evenodd"/></symbol><symbol id="flute" viewBox="0 0 27 28"><path fill-rule="evenodd" d="M13.12 0c-1.45 0-2.62 1.12-2.62 2.5V27c0 .55.47 1 1.05 1h3.14c.58 0 1.05-.45 1.05-1v-1.04c-.32.17-.69.27-1.09.27-1.22 0-2.22-.95-2.22-2.12s1-2.12 2.22-2.12c.4 0 .77.1 1.09.27v-2.44c-.32.17-.69.27-1.09.27-1.22 0-2.22-.95-2.22-2.12 0-1.18 1-2.12 2.22-2.12.4 0 .77.09 1.09.26v-2.44c-.32.18-.69.27-1.09.27-1.22 0-2.22-.95-2.22-2.12s1-2.12 2.22-2.12c.4 0 .77.1 1.09.27V2.5c0-1.38-1.18-2.5-2.62-2.5m1.9 19.38c.82 0 1.48-.63 1.48-1.41 0-.79-.66-1.42-1.48-1.42s-1.48.63-1.48 1.42c0 .78.66 1.41 1.48 1.41m0 6.14c.82 0 1.48-.63 1.48-1.41s-.66-1.42-1.48-1.42-1.48.64-1.48 1.42.66 1.41 1.48 1.41m0-12.28c.82 0 1.48-.64 1.48-1.42s-.66-1.41-1.48-1.41-1.48.63-1.48 1.41.66 1.42 1.48 1.42" clip-rule="evenodd"/></symbol><symbol id="harp-orchestral-harp" viewBox="0 0 27 28"><path fill-rule="evenodd" d="M11.74 28h3.82c.45 0 .85-.31.96-.75l5.17-20.21c.22-.63.66-3.2-.22-4.09-.96-.97-3.36.16-4.41.65-.15.07-.27.12-.36.16q-.045.015-.12.06c-.65.29-2.94 1.34-4.93-.06-1.78-1.25-2.8-2.17-3.45-2.75-.38-.34-.63-.56-.83-.68-.49-.27-2.01-.78-2.15.51-.1.94-.68 7.29.57 13.65.71 3.61 2.2 7.13 3.16 9.16.36.74 1.37.71 1.7-.04l.03-.08c.1-.23.11-.5.03-.73-.73-2.08-1.95-5.84-2.32-8.31-.5-3.27-.7-8.48-.42-9.35.03-.11.12-.15.26-.15l3.97 18.38c-.55 1.3-1.03 2.43-1.38 3.25-.28.66.21 1.38.92 1.38m1.46-7.01c.45-1.06.92-2.15 1.37-3.23L12.11 6.6c-.8-.29-1.56-.65-2.21-.96h-.01zm2.37-5.59c.47-1.1.91-2.12 1.27-2.98l-.96-5.5c-.16.05-.32.09-.49.12-.53.11-1.1.09-1.66 0zm1.71-9.11.64 3.64c.01-.02.01-.04.02-.05.08-.17.21-.42.36-.71.63-1.19 1.64-3.13 1.29-3.63-.3-.43-.89-.08-1.69.4-.2.11-.4.23-.62.35" clip-rule="evenodd"/></symbol><symbol id="james-hetfield-guitar" viewBox="0 0 27 28"><path fill-rule="evenodd" d="M16.79 1.3 3.46 19.79c-.34.46.11.86.4 1.04.19.12.64.38 1.57.91.93.54 1.37 1.43 1.48 1.8h7.82v-.15c0-.32.06-.65.16-.96.59-1.8 1.09-3.71 1.52-5.37.49-1.91.91-3.5 1.31-4.3 1.55-3.1 4.8-2.09 6.3-1.62.33.11.57-.15.45-.47-1.08-2.8-4.51-9.7-4.62-9.87-.09-.15-.52-.8-1.47-.8-.75 0-1.34.92-1.53 1.22-.03.03-.04.06-.06.08M7.17 19.1c0 .47-.38.85-.85.85-.48 0-.86-.38-.86-.85 0-.46.38-.84.86-.84.47 0 .85.38.85.84m.97-1.75c.47 0 .86-.37.86-.84 0-.46-.39-.84-.86-.84s-.86.38-.86.84c0 .47.39.84.86.84m4.51-5.88c0 .46-.38.84-.86.84-.47 0-.85-.38-.85-.84 0-.47.38-.85.85-.85.48 0 .86.38.86.85m1.11-1.8c.48 0 .86-.38.86-.84 0-.47-.38-.85-.86-.85-.47 0-.86.38-.86.85 0 .46.39.84.86.84m2.75-3.31c0 .46-.39.84-.86.84s-.86-.38-.86-.84c0-.47.39-.85.86-.85s.86.38.86.85m-6.53 8.5c.48 0 .86-.38.86-.85a.85.85 0 0 0-.86-.84c-.47 0-.85.38-.85.84 0 .47.38.85.85.85m1.97-9.79c.45.31 1.14.11 1.55-.45s.37-1.27-.08-1.59c-.46-.31-1.15-.11-1.56.45-.4.56-.36 1.27.09 1.59m-.33 2.19c-.4.56-1.1.75-1.55.44-.45-.32-.49-1.03-.08-1.59.4-.56 1.1-.76 1.55-.44.45.31.49 1.02.08 1.59m-3.27 2.83c.45.32 1.15.12 1.55-.44.41-.57.37-1.28-.08-1.59-.45-.32-1.15-.12-1.55.44-.41.56-.37 1.27.08 1.59m-.29 2.11c-.4.56-1.1.76-1.55.44-.45-.31-.49-1.03-.08-1.59.4-.56 1.1-.76 1.55-.44s.49 1.03.08 1.59m-3.39 2.99c.45.32 1.15.12 1.55-.44.41-.57.37-1.28-.08-1.59-.46-.32-1.15-.12-1.56.44-.4.56-.36 1.27.09 1.59m-1.8 2.5c.45.31 1.14.12 1.55-.45.4-.56.37-1.27-.08-1.58-.46-.32-1.15-.12-1.56.44-.4.56-.37 1.27.09 1.59m11.89 6.69H6.84V27c0 .55.45 1 1.02 1h5.89c.56 0 1.01-.45 1.01-1z" clip-rule="evenodd"/></symbol><symbol id="lead" viewBox="0 0 27 28"><path fill-rule="evenodd" d="M6.06 2.03C6.06.85 7.07-.08 8.25.01c1.61.12 3.78.26 5.25.26s3.64-.14 5.25-.26c1.18-.09 2.19.84 2.19 2.02v17.29c0 .45-.3.84-.73.94-1.16.25-3.6.7-6.71.7s-5.55-.45-6.71-.7a.956.956 0 0 1-.73-.94zm2.95 9.68c0-.24.19-.44.43-.44h8.12c.24 0 .43.2.43.44 0 .25-.19.44-.43.44H9.44a.43.43 0 0 1-.43-.44m1.1-2.56c-.25 0-.45.2-.45.45s.2.45.45.45h6.78c.25 0 .45-.2.45-.45s-.2-.45-.45-.45zm-.55 4.68c0-.25.2-.45.45-.45h6.98c.25 0 .45.2.45.45 0 .24-.2.45-.45.45h-6.98c-.25 0-.45-.21-.45-.45m2.98 1.59c-.25 0-.45.2-.45.44 0 .25.2.45.45.45h1.94c.25 0 .45-.2.45-.45 0-.24-.2-.44-.45-.44zm-.45-7.67c0-.24.2-.44.45-.44h1.94c.25 0 .45.2.45.44 0 .25-.2.45-.45.45h-1.94c-.25 0-.45-.2-.45-.45M3.5 23.42c0-.39.31-.7.7-.7h1.41v3.52h2.1v-3.52h1.05v3.52h2.11v-3.52h2.1v3.52h2.11v-3.52h1.05v3.52h2.11v-3.52h1.05v3.52h2.1v-3.52h1.41c.39 0 .7.31.7.7V28h-20z" clip-rule="evenodd"/></symbol><symbol id="noise-seashore" viewBox="0 0 27 28"><path fill-rule="evenodd" d="M3.5 0c-.55 0-1 .45-1 1v2c0 .55.45 1 1 1h4c.55 0 1-.45 1-1V1c0-.55-.45-1-1-1zm-1 7c0-.55.45-1 1-1h4c.55 0 1 .45 1 1v2c0 .55-.45 1-1 1h-4c-.55 0-1-.45-1-1zm0 6c0-.55.45-1 1-1h4c.55 0 1 .45 1 1v2c0 .55-.45 1-1 1h-4c-.55 0-1-.45-1-1zm0 6c0-.55.45-1 1-1h4c.55 0 1 .45 1 1v2c0 .55-.45 1-1 1h-4c-.55 0-1-.45-1-1zm0 6c0-.55.45-1 1-1h4c.55 0 1 .45 1 1v2c0 .55-.45 1-1 1h-4c-.55 0-1-.45-1-1zm8 0c0-.55.45-1 1-1h4c.55 0 1 .45 1 1v2c0 .55-.45 1-1 1h-4c-.55 0-1-.45-1-1zm9-1c-.55 0-1 .45-1 1v2c0 .55.45 1 1 1h4c.55 0 1-.45 1-1v-2c0-.55-.45-1-1-1zm-8-6c-.55 0-1 .45-1 1v2c0 .55.45 1 1 1h4c.55 0 1-.45 1-1v-2c0-.55-.45-1-1-1zm0-6c-.55 0-1 .45-1 1v2c0 .55.45 1 1 1h4c.55 0 1-.45 1-1v-2c0-.55-.45-1-1-1zm-1-5c0-.55.45-1 1-1h4c.55 0 1 .45 1 1v2c0 .55-.45 1-1 1h-4c-.55 0-1-.45-1-1zm9 11c-.55 0-1 .45-1 1v2c0 .55.45 1 1 1h4c.55 0 1-.45 1-1v-2c0-.55-.45-1-1-1z" clip-rule="evenodd"/></symbol><symbol id="organ" viewBox="0 0 27 28"><path fill-rule="evenodd" d="M11.83 1c0-.55.44-1 1-1h1.33c.55 0 1 .45 1 1v15.19c0 .32-.08.62-.21.9l-1.19 2.38h3.69l-1.33-3.46a1.9 1.9 0 0 1-.13-.71V4.1c0-.61.49-1.1 1.1-1.1h1.13c.61 0 1.1.49 1.1 1.1v11.2c0 .24-.05.48-.13.71l-1.33 3.46h3.75l-1.32-3.46c-.09-.23-.14-.47-.14-.71V7.2c0-.66.54-1.2 1.2-1.2h.93c.67 0 1.2.54 1.2 1.2v8.1c0 .24-.04.48-.13.71l-1.33 3.46h1.48V21h-20v-1.53h1.46l-1.33-3.46c-.08-.23-.13-.47-.13-.71V7.2c0-.66.54-1.2 1.2-1.2h.93c.66 0 1.2.54 1.2 1.2v8.1c0 .24-.04.48-.13.71l-1.33 3.46h3.75l-1.33-3.46c-.09-.23-.14-.47-.14-.71V4.1c0-.61.5-1.1 1.1-1.1h1.13c.61 0 1.1.49 1.1 1.1v11.2c0 .24-.04.48-.13.71l-1.33 3.46h3.71l-1.19-2.38q-.21-.42-.21-.9zm.55 12.56c0-.27.23-.5.5-.5h1.22c.28 0 .5.23.5.5 0 .28-.22.5-.5.5h-1.22c-.27 0-.5-.22-.5-.5M4.2 22.75c-.39 0-.7.31-.7.7V28h20v-4.55c0-.39-.31-.7-.7-.7h-1.4v3.5h-2.11v-3.5h-1.05v3.5h-2.11v-3.5h-1.05v3.5h-2.11v-3.5h-2.1v3.5H8.76v-3.5H7.71v3.5h-2.1v-3.5zm.36-8.69c-.28 0-.5.23-.5.5 0 .28.22.5.5.5h1.22c.27 0 .5-.22.5-.5 0-.27-.23-.5-.5-.5zm3.65 0c0-.27.22-.5.5-.5h1.22c.28 0 .5.23.5.5 0 .28-.22.5-.5.5H8.71c-.28 0-.5-.22-.5-.5m8.83-.5c-.27 0-.5.23-.5.5 0 .28.23.5.5.5h1.22c.28 0 .5-.22.5-.5 0-.27-.22-.5-.5-.5zm3.67 1c0-.27.22-.5.5-.5h1.22c.27 0 .5.23.5.5 0 .28-.23.5-.5.5h-1.22c-.28 0-.5-.22-.5-.5" clip-rule="evenodd"/></symbol><symbol id="pad" viewBox="0 0 27 28"><path fill-rule="evenodd" d="M6.5 12c3.31 0 6-2.69 6-6s-2.69-6-6-6-6 2.69-6 6 2.69 6 6 6m19-3c0 3.31-2.69 6-6 6s-6-2.69-6-6 2.69-6 6-6 6 2.69 6 6m-2.81.34c0 1.94-1.57 3.5-3.5 3.5-1.94 0-3.5-1.56-3.5-3.5 0-1.93 1.56-3.5 3.5-3.5 1.93 0 3.5 1.57 3.5 3.5M26.5 22c0 3.31-2.69 6-6 6s-6-2.69-6-6 2.69-6 6-6 6 2.69 6 6m-13-3c0 3.31-2.69 6-6 6s-6-2.69-6-6 2.69-6 6-6 6 2.69 6 6m-2.25-.22c0 1.93-1.57 3.5-3.5 3.5s-3.5-1.57-3.5-3.5 1.57-3.5 3.5-3.5 3.5 1.57 3.5 3.5" clip-rule="evenodd"/></symbol><symbol id="piano" viewBox="0 0 27 28"><path fill-rule="evenodd" d="M9.6 0C7.06 0 5 2.01 5 4.5v17.37h17v-5.25c0-1.64-1.05-2.43-2.38-3.43-.8-.6-1.7-1.27-2.54-2.26-1.08-1.26-1.53-3.85-1.72-6.19C15.17 2.17 13.07 0 10.44 0zm1.66 22.75h1.79v3.5h1.79v-3.5h.9v3.5h1.79v-3.5h.89v3.5h1.79v-3.5H22V28H5v-5.25h1.79v3.5h1.79v-3.5h.89v3.5h1.79z" clip-rule="evenodd"/></symbol><symbol id="saxophone" viewBox="0 0 27 28"><path fill-rule="evenodd" d="M12.11 4.94s-5.25 13.3-5.67 16.18c-.43 2.89.98 6.88 6.32 6.88 3.81 0 5.33-3.8 6.39-6.45.42-1.06.77-1.94 1.17-2.32 1.18-1.14 1.58-1.08 2.15-1 .09.01.19.03.3.03 1.02.09 1.6-.26.97-1.39-.41-.72-1.19-1.92-1.91-3.02l-.01-.01c-.39-.61-.77-1.18-1.05-1.62-.78-1.25-1.94-2.52-2.27-1.19-.39 1.58-.58 1.87-1.4 2.78-.19.21-.38.41-.56.59-.59.6-1.12 1.15-1.6 2.22-.63 1.4-1.18 3.46-1.24 4.02s-.83 2.52-2.01 1.53c-.58-.49-.33-1.25 0-1.75-.17.04-.35.05-.53.03-.95-.11-1.61-1.14-1.47-2.31.13-1.1.94-1.93 1.84-1.91-.4-.43-.61-1.09-.53-1.8.13-1.11.94-1.94 1.84-1.92-.39-.43-.61-1.09-.52-1.8.13-1.16 1.01-2.02 1.96-1.91.27.03.52.14.73.3.08-.32.23-.8.39-1.34.29-.96.64-2.11.78-2.82.21-1.07.05-3.04-1.09-4.14-.98-.97-2.14-.97-2.98-.47-.38.22-.83.66-1.28 1.1-.53.53-1.07 1.05-1.48 1.21-.42.16-.75.16-1.02.16h-.02L7.6 4.61c.13.01.28.03.44.05.81.1 1.81.23 2.63-.47.18-.16.34-.3.48-.43.58-.53.8-.72 1.17-.5.37.23-.07 1.4-.21 1.68M3 3.03l3.8 1.31.76-1.88-1.77-1.18-2.57.69zm12.47 8.05c-.09.77-.68 1.34-1.32 1.27-.63-.07-1.07-.76-.98-1.54s.68-1.35 1.32-1.27c.63.07 1.07.76.98 1.54m-2.63 4.99c.64.07 1.22-.5 1.32-1.28.09-.77-.35-1.46-.99-1.54-.63-.07-1.22.5-1.31 1.28-.09.77.35 1.46.98 1.54m-1.31 3.71c.63.08 1.22-.49 1.31-1.27.09-.77-.35-1.46-.98-1.54-.63-.07-1.22.5-1.31 1.27-.09.78.35 1.47.98 1.54" clip-rule="evenodd"/></symbol><symbol id="sitar" viewBox="0 0 27 28"><path fill-rule="evenodd" d="M11.36 0a1.5 1.5 0 0 0-1.51 1.5v18.66H21v-5.29c0-.58-.48-1.06-1.06-1.06-1.57 0-2.84-1.26-2.84-2.82V1.5c0-.83-.67-1.5-1.5-1.5zM21 21.66H9.85v2.32H21zM9.85 28v-2.52H21V28zM7.14 5.75c.63 0 1.14-.76 1.14-1.69s-.51-1.69-1.14-1.69S6 3.13 6 4.06s.51 1.69 1.14 1.69m1.14 3.44c0 .93-.51 1.69-1.14 1.69S6 10.12 6 9.19 6.51 7.5 7.14 7.5s1.14.76 1.14 1.69m0 4.81c0 .93-.51 1.69-1.14 1.69S6 14.93 6 14s.51-1.69 1.14-1.69 1.14.76 1.14 1.69M21 9.19c0 .93-.51 1.69-1.14 1.69s-1.14-.76-1.14-1.69.51-1.69 1.14-1.69S21 8.26 21 9.19m-1.14-3.44c.63 0 1.14-.76 1.14-1.69s-.51-1.69-1.14-1.69-1.14.76-1.14 1.69.51 1.69 1.14 1.69M8.28 23.04c0 .93-.51 1.69-1.14 1.69S6 23.97 6 23.04s.51-1.69 1.14-1.69 1.14.76 1.14 1.69" clip-rule="evenodd"/></symbol><symbol id="timpani" viewBox="0 0 27 28"><path fill-rule="evenodd" d="M21.48 1.98c.54-.09.9-.6.81-1.14a.98.98 0 0 0-1.12-.83L9.03 1.99c-.45-.6-1.16-1-1.97-1C5.71.99 4.6 2.11 4.6 3.48s1.11 2.49 2.46 2.49c1.21 0 2.21-.88 2.42-2.04zM2.04 9.24c-.19-.64.28-1.29.94-1.29h21.04c.63 0 1.1.6.95 1.23l-1.34 5.79a8.96 8.96 0 0 1-4 5.59l3.4 5.95c.27.47.11 1.08-.36 1.36a.987.987 0 0 1-1.35-.37l-3.48-6.09c-.77.26-1.58.42-2.42.46v-2.98c0-1.1-.88-1.99-1.96-1.99-1.09 0-1.97.89-1.97 1.99v2.94a8.6 8.6 0 0 1-2.14-.51L5.82 27.5a.99.99 0 0 1-1.35.37c-.47-.28-.63-.89-.36-1.36l3.48-6.08a8.97 8.97 0 0 1-3.64-4.88zm11.42 8.68c-.56 0-1 .45-1 1v8c0 .55.44 1 1 1 .55 0 1-.45 1-1v-8c0-.55-.45-1-1-1" clip-rule="evenodd"/></symbol><symbol id="trumpet-synth-brass" viewBox="0 0 27 28"><path fill-rule="evenodd" d="M12.37 5.64c.05-2.13.63-3.29 1.48-4.08.52-.48 1.31-.61 1.9-.62.29-.01.56-.22.56-.49 0-.25-.22-.45-.48-.45H6.04c-.3 0-.54.23-.54.5s.22.48.5.51c.62.05 1.3.16 1.66.55.43.49 1.4 1.95 1.48 4.16v.75c.01-.01.03-.01.05-.01.95 0 1.71.72 1.71 1.6s-.76 1.59-1.71 1.59h-.05v.58h.05c.95 0 1.71.72 1.71 1.6s-.76 1.59-1.71 1.59h-.05V14h.05c.95 0 1.71.71 1.71 1.59s-.76 1.6-1.71 1.6h-.05v1.93c0 1.17.83 2.04 1.45 2.5.63.46 1.55.91 2.45.91v-3.01l-.05-.03c-.12-.05-.25-.12-.38-.22-.13-.09-.2-.18-.24-.23zm4.58 19.29V9.3s.01-.06.05-.17c.04-.13.11-.26.19-.38.02-.03.04-.05.06-.08.03-.03.06-.05.08-.08a.2.2 0 0 0 .06-.04s.01-.01.02-.01c.05-.03.13-.06.28-.06.16 0 .22.03.24.04.03.02.08.06.14.16.04.05.07.12.1.19.02.05.04.11.05.17.01.02.02.04.02.07.01.03.01.07.02.1v.04l.01.02v10.14c0 .02 0 .05-.01.07-.02 0-.05.01-.09.01h-.14v3c1.28 0 2.37-.39 2.99-1.32.49-.72.48-1.53.48-1.82V9.29c0-.52-.15-1.38-.66-2.16-.55-.85-1.57-1.66-3.15-1.66-1.55 0-2.6.8-3.18 1.61-.54.74-.79 1.61-.79 2.21v15.64zM8.91 12.89c-.64 0-1.15-.48-1.15-1.06 0-.59.51-1.07 1.15-1.07.63 0 1.14.48 1.14 1.07 0 .58-.51 1.06-1.14 1.06m-1.15 2.7c0 .59.51 1.07 1.15 1.07.63 0 1.14-.48 1.14-1.07 0-.58-.51-1.06-1.14-1.06-.64 0-1.15.48-1.15 1.06m0-7.53c0 .59.51 1.06 1.15 1.06.63 0 1.14-.47 1.14-1.06S9.54 7 8.91 7c-.64 0-1.15.47-1.15 1.06m6.5 17.79c-.6 0-1.08.45-1.08 1V27c0 .55.48 1 1.08 1h2.15c.6 0 1.08-.45 1.08-1v-.15c0-.55-.48-1-1.08-1z" clip-rule="evenodd"/></symbol><symbol id="tubular-bells" viewBox="0 0 27 28"><path fill-rule="evenodd" d="M4.5 0c-.28 0-.5.22-.5.5v26c0 .83.67 1.5 1.5 1.5S7 27.33 7 26.5V.5c0-.28-.22-.5-.5-.5zm16 0c-.28 0-.5.22-.5.5v11c0 .83.67 1.5 1.5 1.5s1.5-.67 1.5-1.5V.5c0-.28-.22-.5-.5-.5zM19 21c0-.55.45-1 1-1h2c.55 0 1 .45 1 1v6c0 .55-.45 1-1 1h-2c-.55 0-1-.45-1-1v-2H9c-.55 0-1-.45-1-1s.45-1 1-1h10zM16 .5c0-.28.22-.5.5-.5h2c.28 0 .5.22.5.5v14c0 .83-.67 1.5-1.5 1.5s-1.5-.67-1.5-1.5zM12.5 0c-.28 0-.5.22-.5.5v17c0 .83.67 1.5 1.5 1.5s1.5-.67 1.5-1.5V.5c0-.28-.22-.5-.5-.5zM8 .5c0-.28.22-.5.5-.5h2c.28 0 .5.22.5.5v19c0 .83-.67 1.5-1.5 1.5S8 20.33 8 19.5z" clip-rule="evenodd"/></symbol><symbol id="violin" viewBox="0 0 27 28"><path fill-rule="evenodd" d="M8.98 7.6c-.14.51.13 1.01.58 1.2l-.93 13.16h3.06l.73-11.14c.04-.53.47-.94 1-.94h.41c.53 0 .96.41 1 .94l.73 11.14h3.07L17.69 8.8c.45-.19.72-.69.58-1.2l-.48-1.75h.55a.99.99 0 0 0 1-1h.29c.55 0 1-.45 1-1.01 0-.55-.45-1.01-1-1.01h-.75l-.07-.24a.995.995 0 0 0-.97-.76h-1.16l-.3-1.09c-.14-.52-.66-.83-1.18-.72l-1.14.26q-.435.105-.87 0L12.05.02c-.52-.11-1.04.2-1.18.72l-.3 1.09H9.41c-.46 0-.86.31-.97.76l-.06.24h-.75c-.56 0-1 .46-1 1.01 0 .56.44 1.01 1 1.01h.28c-.01.54.43 1 1 1h.55zm11.11 6.31c.83 0 1.5-.9 1.5-2.02 0-1.11-.67-2.01-1.5-2.01-.82 0-1.5.9-1.5 2.01 0 1.12.68 2.02 1.5 2.02m.41 6.04c.83 0 1.5-.9 1.5-2.02 0-1.11-.67-2.01-1.5-2.01s-1.5.9-1.5 2.01c0 1.12.67 2.02 1.5 2.02M8.55 13.91c0 1.11-.67 2.01-1.5 2.01s-1.5-.9-1.5-2.01.67-2.02 1.5-2.02 1.5.91 1.5 2.02M6.5 21.96c.83 0 1.5-.9 1.5-2.01s-.67-2.02-1.5-2.02-1.5.91-1.5 2.02.67 2.01 1.5 2.01m12.13 1.01h-10v4.02c0 .56.44 1.01 1 1.01h8c.55 0 1-.45 1-1.01z" clip-rule="evenodd"/></symbol></svg>